<svg width="300" height="300" viewBox="0 0 300 300" fill="none" xmlns="http://www.w3.org/2000/svg">
<path d="M296.152 155.343C298.222 155.419 299.843 157.159 299.716 159.226C297.694 192.053 284.932 223.347 263.343 248.251C240.935 274.101 210.364 291.515 176.7 297.605C143.036 303.694 108.301 298.093 78.2574 281.731C48.2136 265.368 24.6655 239.228 11.5185 207.644C-1.62843 176.061 -3.5843 140.932 5.97532 108.085C15.5349 75.237 36.0356 46.6439 64.0773 27.0476C92.1191 7.45121 126.017 -1.97095 160.149 0.343737C193.033 2.57375 224.23 15.5685 248.948 37.2648C250.505 38.631 250.597 41.0075 249.192 42.5294C247.788 44.0513 245.418 44.142 243.86 42.7779C220.4 22.2407 190.818 9.94082 159.642 7.82655C127.216 5.62759 95.0131 14.5787 68.3735 33.1952C41.7338 51.8117 22.2582 78.9752 13.1765 110.18C4.09492 141.386 5.95299 174.758 18.4426 204.762C30.9322 234.766 53.3029 259.6 81.8445 275.144C110.386 290.688 143.384 296.009 175.365 290.224C207.346 284.439 236.388 267.896 257.676 243.339C278.144 219.727 290.26 190.07 292.219 158.952C292.349 156.885 294.083 155.267 296.152 155.343Z" fill="#2F184B"/>
<path d="M256.146 49.3914C257.649 47.9667 260.026 48.0271 261.413 49.5654C262.442 50.7072 263.454 51.8647 264.448 53.0376C265.787 54.6178 265.528 56.9818 263.915 58.2806C262.302 59.5795 259.945 59.3212 258.604 57.7428C257.74 56.725 256.861 55.7195 255.968 54.7264C254.583 53.1863 254.643 50.8161 256.146 49.3914Z" fill="#2F184B"/>
<path d="M286.904 98.5578C288.843 97.8294 291.01 98.809 291.69 100.765C296.08 113.399 298.76 126.563 299.66 139.908C299.799 141.974 298.188 143.723 296.119 143.811C294.05 143.899 292.306 142.292 292.164 140.225C291.301 127.675 288.78 115.293 284.667 103.404C283.989 101.447 284.966 99.2863 286.904 98.5578Z" fill="#2F184B"/>
<path d="M77.7352 232.453C76.7189 233.627 74.9402 233.759 73.7913 232.713C63.0757 222.964 54.3372 211.231 48.0644 198.153C41.386 184.229 37.6457 169.079 37.0765 153.647C36.5072 138.215 39.1212 122.831 44.7557 108.453C50.0478 94.9482 57.8982 82.6028 67.8664 72.0907C68.9352 70.9636 70.7187 70.9632 71.8188 72.0599C72.9188 73.1565 72.9187 74.9347 71.8514 76.0633C62.4275 86.0276 55.0033 97.7195 49.9929 110.505C44.6401 124.164 42.1569 138.779 42.6976 153.44C43.2384 168.1 46.7917 182.492 53.1362 195.72C59.075 208.102 67.3404 219.215 77.4728 228.458C78.6203 229.505 78.7515 231.278 77.7352 232.453Z" fill="#2F184B"/>
<path d="M214.612 61.2291C215.534 59.9791 217.298 59.7105 218.524 60.6635C232.087 71.2017 243.068 84.7142 250.61 100.173C258.563 116.476 262.456 134.46 261.958 152.592C261.459 170.724 256.583 188.467 247.746 204.308C239.367 219.329 227.66 232.218 213.538 241.995C212.261 242.879 210.515 242.514 209.663 241.215C208.811 239.917 209.176 238.176 210.452 237.29C223.816 228.012 234.896 215.797 242.834 201.567C251.229 186.519 255.861 169.663 256.335 152.437C256.808 135.212 253.11 118.127 245.554 102.64C238.41 87.9957 228.018 75.1904 215.184 65.1917C213.959 64.237 213.69 62.4791 214.612 61.2291Z" fill="#2F184B"/>
<path d="M191.619 155.397C191.619 155.397 213.785 145.545 214.278 133.231C214.771 120.916 191.619 34.7143 177.827 41.1178C164.035 47.5214 165.02 241.106 165.02 255.883C165.02 270.661 194.571 269.56 194.571 249.857C194.571 230.154 196.817 193.344 189.429 183C182.04 172.656 161.839 159.621 139.406 140.127C118.2 121.7 94.1548 110.143 91.6918 98.3213C89.633 88.439 91.0163 50.332 91.5256 38.0934C91.6148 35.9506 93.3786 34.2857 95.5233 34.2857V34.2857C97.7415 34.2857 99.5397 36.0839 99.5397 38.3021V79.6227C99.5397 81.5162 101.075 83.0512 102.968 83.0512V83.0512C104.862 83.0512 106.397 81.5162 106.397 79.6227V38.5089C106.397 36.1765 108.288 34.2857 110.62 34.2857V34.2857C112.952 34.2857 114.843 36.1765 114.843 38.5089V79.8495C114.843 81.6178 116.277 83.0512 118.045 83.0512V83.0512C119.813 83.0512 121.247 81.6178 121.247 79.8495V37.387C121.247 35.6742 122.635 34.2857 124.348 34.2857V34.2857C126.917 34.2857 129 36.3685 129 38.9377V94.1257C129 96.8762 128.294 99.5745 126.95 101.974C120.081 114.244 98.2101 153.531 96.5511 159.337C94.5807 166.233 93.5956 245.571 93.5956 255.883C93.5956 266.195 122.165 271.646 124.136 255.883C126.106 240.121 128.569 185.444 124.136 175.592C119.702 165.741 85.7143 140.127 85.7143 140.127" stroke="#2F184B" stroke-width="5" stroke-linecap="round"/>
</svg>
